<svg width="14" height="14" viewBox="0 0 14 14" fill="none" xmlns="http://www.w3.org/2000/svg">
<path d="M8.0123 8.01242C9.56589 8.79401 10.5371 9.58991 11.0814 10.2559C11.4215 10.672 11.5781 11.0165 11.6266 11.2582C11.6754 11.5013 11.6096 11.5826 11.5959 11.5963C11.5822 11.61 11.5008 11.6758 11.2577 11.627C11.016 11.5784 10.6715 11.4217 10.2554 11.0816C9.58946 10.5372 8.79368 9.56599 8.0123 8.01242ZM12.1884 7.58375C11.3329 7.66967 10.0841 7.54564 8.43395 7C10.0841 6.45436 11.3329 6.33033 12.1884 6.41624C12.7231 6.46994 13.0774 6.6027 13.2826 6.73925C13.489 6.87661 13.5 6.9807 13.5 7C13.5 7.0193 13.489 7.12339 13.2826 7.26075C13.0774 7.3973 12.7231 7.53006 12.1884 7.58375ZM11.0814 3.74406C10.5371 4.41009 9.56589 5.20599 8.0123 5.98758C8.79368 4.43401 9.58946 3.46275 10.2554 2.91838C10.6715 2.57828 11.016 2.42159 11.2577 2.37303C11.5008 2.32417 11.5822 2.39002 11.5959 2.40369C11.6096 2.41735 11.6754 2.4987 11.6266 2.74182C11.5781 2.98351 11.4215 3.32796 11.0814 3.74406ZM7.5832 1.81163C7.6692 2.66735 7.54519 3.91664 6.99936 5.56746C6.45354 3.91664 6.32953 2.66735 6.41552 1.81163C6.46926 1.27695 6.60204 0.922625 6.7386 0.717401C6.87597 0.510954 6.98007 0.5 6.99936 0.5C7.01866 0.5 7.12275 0.510954 7.26013 0.717401C7.39669 0.922625 7.52947 1.27695 7.5832 1.81163ZM3.74354 2.91986C4.40928 3.46388 5.20481 4.43451 5.98601 5.98709C4.43332 5.20621 3.46252 4.41096 2.91831 3.7454C2.57821 3.32945 2.42152 2.9851 2.37295 2.74349C2.32408 2.50045 2.38992 2.41914 2.40353 2.40552C2.41715 2.3919 2.49846 2.32604 2.74153 2.37484C2.98316 2.42334 3.32754 2.57992 3.74354 2.91986ZM1.81159 6.41625C2.66707 6.33033 3.91591 6.45436 5.56605 7C3.91591 7.54564 2.66707 7.66967 1.81159 7.58375C1.27693 7.53006 0.922607 7.3973 0.717391 7.26075C0.510953 7.12339 0.5 7.0193 0.5 7C0.5 6.9807 0.510953 6.87661 0.717391 6.73925C0.922607 6.6027 1.27693 6.46994 1.81159 6.41625ZM5.98601 8.01327C5.20479 9.56635 4.40924 10.5374 3.74346 11.0816C3.32744 11.4217 2.98305 11.5784 2.74142 11.627C2.49836 11.6758 2.41711 11.61 2.40353 11.5964C2.38994 11.5828 2.32407 11.5015 2.37295 11.2583C2.42154 11.0166 2.57825 10.6721 2.91837 10.256C3.46258 9.59016 4.43337 8.79459 5.98601 8.01327ZM6.41552 12.1884C6.32953 11.3327 6.45354 10.0834 6.99936 8.43254C7.54519 10.0834 7.6692 11.3327 7.5832 12.1884C7.52947 12.723 7.39669 13.0774 7.26013 13.2826C7.12275 13.489 7.01866 13.5 6.99936 13.5C6.98007 13.5 6.87597 13.489 6.7386 13.2826C6.60204 13.0774 6.46926 12.723 6.41552 12.1884Z" fill="black" stroke="black"/>
</svg>
