<svg width="14" height="14" viewBox="0 0 14 14" fill="none" xmlns="http://www.w3.org/2000/svg">
<path d="M14 7L9.14791 6.69118L13.7165 5.02787L8.9739 6.09855L12.8888 3.21551L8.63998 5.57895L11.584 1.70975L8.17319 5.17448L9.9079 0.632576L7.61136 4.9179L7.9962 0.0712502L7 4.83L6.0038 0.0712503L6.38864 4.9179L4.09209 0.632576L5.82681 5.17448L2.41598 1.70975L5.36002 5.57895L1.11122 3.21551L5.0261 6.09855L0.283549 5.02787L4.85209 6.69118L-3.0598e-07 7L4.85209 7.30882L0.283549 8.97213L5.0261 7.90145L1.11122 10.7845L5.36002 8.42105L2.41598 12.2902L5.82681 8.82552L4.09209 13.3674L6.38864 9.0821L6.0038 13.9288L7 9.17L7.9962 13.9288L7.61136 9.0821L9.90791 13.3674L8.17319 8.82552L11.584 12.2902L8.63998 8.42105L12.8888 10.7845L8.9739 7.90145L13.7165 8.97213L9.14791 7.30882L14 7Z" fill="black"/>
</svg>
