<svg width="14" height="14" viewBox="0 0 14 14" fill="none" xmlns="http://www.w3.org/2000/svg">
<path d="M14 7.57692L8.46154 7.30769L13.6923 9.15385L13.2692 10.2308L8.23077 7.84615L12.3846 11.5385L11.5385 12.3846L7.84615 8.23077L10.2308 13.2692L9.15385 13.6923L7.30769 8.46154L7.57692 14L6.42308 14L6.73077 8.46154L4.84615 13.6923L3.80769 13.2692L6.19231 8.23077L2.46154 12.3846L1.65385 11.5385L5.76923 7.84615L0.76923 10.2308L0.307692 9.15385L5.57692 7.30769L-2.80762e-07 7.57692L-3.31198e-07 6.42308L5.53846 6.73077L0.307691 4.84616L0.76923 3.80769L5.76923 6.19231L1.65384 2.46154L2.46154 1.65385L6.19231 5.76923L3.80769 0.769233L4.84615 0.307693L6.73077 5.57692L6.42308 6.72913e-07L7.57692 6.22477e-07L7.30769 5.57692L9.15385 0.307693L10.2308 0.769232L7.84615 5.76923L11.5385 1.65385L12.3846 2.46154L8.23077 6.19231L13.2692 3.80769L13.6923 4.84615L8.46154 6.73077L14 6.42308L14 7.57692Z" fill="black"/>
</svg>
