<svg
	xmlns="http://www.w3.org/2000/svg"
	viewBox="0 0 442.82 22.63"
	width="{{ width|default:'280px' }}"
	height="{{ height|default:'54px' }}"
	class="logo logo--mobile {{ class }}"
>
	<g>
		<path d="M15.78,14.8c0,4.54-3.43,7.6-7.91,7.6S0,19.34,0,14.8V.23H3.34V14.65c0,2.93,1.79,4.76,4.54,4.76s4.57-1.82,4.57-4.76V.23h3.34Z"/>
		<path d="M22.64,22.21H18.87V18.45h3.77Z"/>
		<path d="M40.9,2.54l-2.1,2.1A6.56,6.56,0,0,0,34,2.94c-2.59,0-4,1.42-4,3.43a2.55,2.55,0,0,0,.8,2,4.27,4.27,0,0,0,2.41,1l2.63.4a7.14,7.14,0,0,1,4.08,1.64,5.86,5.86,0,0,1,1.79,4.51c0,4-3.27,6.46-7.91,6.46-3.3,0-5.65-.77-7.78-2.9l2.19-2.19a7.39,7.39,0,0,0,5.65,2.13c2.9,0,4.54-1.24,4.54-3.4a2.81,2.81,0,0,0-.86-2.29,4.34,4.34,0,0,0-2.41-.93l-2.59-.37a7.42,7.42,0,0,1-4.14-1.76,5.47,5.47,0,0,1-1.64-4.23c0-3.81,2.79-6.4,7.36-6.4A9.11,9.11,0,0,1,40.9,2.54Z"/>
		<path d="M47.91,22.21H44.14V18.45h3.77Z"/>
		<path d="M68.95.23c4.29,0,7,2.84,7,6.67s-2.75,6.64-7,6.64h-5v8.68H60.61V.23Zm-5,3v7.31h4.82c2.35,0,3.89-1.33,3.89-3.64s-1.54-3.68-3.89-3.68Z"/>
		<path d="M88.56.23c4.17,0,6.83,2.69,6.83,6.42A5.77,5.77,0,0,1,91,12.49l5.06,9.73H92.17l-4.63-9.27H83.37v9.27H80V.23Zm-5.19,3v6.89h4.94c2.22,0,3.74-1.27,3.74-3.43s-1.51-3.46-3.74-3.46Z"/>
		<path d="M114.32,3.22H103.61V9.64h9.14v3h-9.14v6.58h10.72v3H100.27V.23h14.05Z"/>
		<path d="M131.87,2.54l-2.1,2.1a6.56,6.56,0,0,0-4.85-1.7c-2.59,0-4,1.42-4,3.43a2.55,2.55,0,0,0,.8,2,4.27,4.27,0,0,0,2.41,1l2.63.4a7.14,7.14,0,0,1,4.08,1.64,5.86,5.86,0,0,1,1.79,4.51c0,4-3.27,6.46-7.91,6.46-3.3,0-5.65-.77-7.78-2.9l2.19-2.19a7.39,7.39,0,0,0,5.65,2.13c2.9,0,4.54-1.24,4.54-3.4a2.81,2.81,0,0,0-.86-2.29A4.34,4.34,0,0,0,126,12.8l-2.59-.37a7.43,7.43,0,0,1-4.14-1.76,5.47,5.47,0,0,1-1.64-4.23c0-3.81,2.79-6.4,7.32-6.4A9.11,9.11,0,0,1,131.87,2.54Z"/>
		<path d="M149.94,2.54l-2.1,2.1A6.56,6.56,0,0,0,143,2.94c-2.59,0-4,1.42-4,3.43a2.55,2.55,0,0,0,.8,2,4.27,4.27,0,0,0,2.41,1l2.63.4a7.14,7.14,0,0,1,4.08,1.64,5.86,5.86,0,0,1,1.79,4.51c0,4-3.27,6.46-7.91,6.46-3.3,0-5.65-.77-7.78-2.9l2.19-2.19a7.39,7.39,0,0,0,5.65,2.13c2.9,0,4.54-1.24,4.54-3.4a2.81,2.81,0,0,0-.86-2.29,4.34,4.34,0,0,0-2.41-.93l-2.59-.37a7.43,7.43,0,0,1-4.14-1.76,5.47,5.47,0,0,1-1.64-4.23c0-3.83,2.78-6.42,7.35-6.42A9.11,9.11,0,0,1,149.94,2.54Z"/>
		<path d="M177.32,3.36H166.61v6.75h9.14v3h-9.14v9.3h-3.34V.41h14.05Z"/>
		<path d="M189.86.36c4.17,0,6.83,2.69,6.83,6.42a5.77,5.77,0,0,1-4.39,5.84l5.06,9.73h-3.88l-4.63-9.24h-4.17v9.27h-3.34V.38Zm-5.19,3v6.89h4.94c2.22,0,3.74-1.27,3.74-3.43s-1.51-3.46-3.74-3.46Z"/>
		<path d="M215.63,3.36h-10.7V9.78h9.14v3h-9.14v6.58h10.7v3H201.57V.36h14.06Z"/>
		<path d="M234.25,3.36H223.54V9.78h9.14v3h-9.14v6.58h10.71v3h-14V.36h14Z"/>
		<path d="M246.55.36a7.35,7.35,0,0,1,6.24,2.75c1.61,2,1.67,4.69,1.67,8.21s-.06,6.24-1.67,8.21a7.35,7.35,0,0,1-6.24,2.78h-7.72V.31Zm-4.39,3v16h4a4.62,4.62,0,0,0,3.77-1.48c1.08-1.2,1.17-3.24,1.17-6.52S251,6,249.93,4.84a4.62,4.62,0,0,0-3.77-1.48Z"/>
		<path d="M272.19,2.4c2.16,2.16,2.22,4.35,2.22,9s-.06,6.79-2.22,9a8.37,8.37,0,0,1-11.37,0c-2.16-2.16-2.22-4.35-2.22-9s.06-6.79,2.22-9A8.37,8.37,0,0,1,272.19,2.4Zm-9,2.1c-1.08,1.17-1.3,2.5-1.3,6.86s.22,5.65,1.3,6.83a4.62,4.62,0,0,0,6.53,0l0,0c1.11-1.14,1.3-2.47,1.3-6.83s-.19-5.71-1.3-6.86A4.7,4.7,0,0,0,263.19,4.5Z"/>
		<path d="M298.75,22.35h-3.34V7.65l-5.06,10.72h-2.47L282.69,7.65v14.7h-3.34V.35h3.34L289.11,14,295.41.35h3.34Z"/>
		<path d="M325.41,3.36h-6.05v19H316v-19h-6.1v-3h15.44Z"/>
		<path d="M337.74.36c4.17,0,6.83,2.69,6.83,6.42a5.77,5.77,0,0,1-4.39,5.84l5.06,9.73h-3.89l-4.63-9.24h-4.17v9.27h-3.34V.38Zm-5.19,3v6.89h4.94c2.22,0,3.74-1.27,3.74-3.43s-1.51-3.46-3.74-3.46Z"/>
		<path d="M365.63,22.35h-3.55l-1.51-4.42h-8.64l-1.51,4.42h-3.55l8.06-22h2.69Zm-12.79-7.24h6.76l-3.4-9.76Z"/>
		<path d="M383.39,6.94H380a4.36,4.36,0,0,0-4.45-3.77A4.28,4.28,0,0,0,372.3,4.5C371.19,5.67,371,7,371,11.36s.22,5.68,1.33,6.86a4.28,4.28,0,0,0,3.24,1.33A4.36,4.36,0,0,0,380,15.78h3.4c-.77,4.35-3.83,6.76-7.84,6.76a7.67,7.67,0,0,1-5.68-2.22c-2.13-2.16-2.22-4.35-2.22-9s.09-6.79,2.22-9a8.06,8.06,0,0,1,13.52,4.62Z"/>
		<path d="M397.11,9,405,22.35h-3.92l-6.14-10.84L391.22,16v6.39h-3.34V.35h3.34V11.42l9-11.06h4.08Z"/>
		<path d="M422.22,3.36H411.5V9.78h9.14v3H411.5v6.58h10.72v3H408.17V.36h14.05Z"/>
		<path d="M435.32.36c4.17,0,6.83,2.69,6.83,6.42a5.77,5.77,0,0,1-4.39,5.84l5.06,9.73h-3.89l-4.63-9.24h-4.17v9.27h-3.34V.38Zm-5.19,3v6.89h4.94c2.22,0,3.74-1.27,3.74-3.43s-1.51-3.46-3.74-3.46Z"/>
	</g>
</svg>
