<svg
	xmlns="http://www.w3.org/2000/svg"
	viewBox="0 0 382.21 22.63"
	width="{{ width|default:'280px' }}"
	height="{{ height|default:'54px' }}"
	class="logo logo--mobile-xs {{ class }}"
>
	<g>
		<path d="M8.34.23c4.29,0,7,2.84,7,6.67s-2.75,6.64-7,6.64h-5v8.68H0V.23Zm-5,3v7.31H8.16C10.51,10.54,12,9.21,12,6.9S10.51,3.22,8.16,3.22Z"/>
		<path d="M27.95.23c4.17,0,6.83,2.69,6.83,6.42a5.77,5.77,0,0,1-4.39,5.84l5.06,9.73H31.56l-4.63-9.27H22.76v9.27H19.39V.23Zm-5.19,3v6.89H27.7c2.22,0,3.74-1.27,3.74-3.43S29.93,3.23,27.7,3.23Z"/>
		<path d="M53.71,3.22H43V9.64h9.14v3H43v6.58H53.72v3H39.66V.23H53.71Z"/>
		<path d="M71.26,2.54l-2.1,2.1a6.56,6.56,0,0,0-4.85-1.7c-2.59,0-4,1.42-4,3.43a2.55,2.55,0,0,0,.8,2,4.27,4.27,0,0,0,2.41,1l2.63.4a7.14,7.14,0,0,1,4.08,1.64A5.86,5.86,0,0,1,72,15.92c0,4-3.27,6.46-7.91,6.46-3.3,0-5.65-.77-7.78-2.9l2.19-2.19a7.39,7.39,0,0,0,5.65,2.13c2.9,0,4.54-1.24,4.54-3.4a2.81,2.81,0,0,0-.86-2.29,4.34,4.34,0,0,0-2.41-.93l-2.59-.37a7.43,7.43,0,0,1-4.14-1.76,5.47,5.47,0,0,1-1.64-4.23c0-3.81,2.79-6.4,7.32-6.4A9.11,9.11,0,0,1,71.26,2.54Z"/>
		<path d="M89.33,2.54l-2.1,2.1a6.56,6.56,0,0,0-4.84-1.7c-2.59,0-4,1.42-4,3.43a2.55,2.55,0,0,0,.8,2,4.27,4.27,0,0,0,2.41,1l2.63.4a7.14,7.14,0,0,1,4.08,1.64,5.86,5.86,0,0,1,1.79,4.51c0,4-3.27,6.46-7.91,6.46-3.3,0-5.65-.77-7.78-2.9l2.19-2.19a7.39,7.39,0,0,0,5.65,2.13c2.9,0,4.54-1.24,4.54-3.4a2.81,2.81,0,0,0-.86-2.29,4.34,4.34,0,0,0-2.41-.93l-2.59-.37a7.43,7.43,0,0,1-4.14-1.76,5.47,5.47,0,0,1-1.64-4.23C75.15,2.61,77.93,0,82.5,0A9.11,9.11,0,0,1,89.33,2.54Z"/>
		<path d="M116.71,3.36H106v6.75h9.14v3H106v9.3h-3.34V.41h14.05Z"/>
		<path d="M129.25.36c4.17,0,6.83,2.69,6.83,6.42a5.77,5.77,0,0,1-4.39,5.84l5.06,9.73h-3.88l-4.63-9.24h-4.17v9.27h-3.34V.38Zm-5.19,3v6.89H129c2.22,0,3.74-1.27,3.74-3.43S131.23,3.36,129,3.36Z"/>
		<path d="M155,3.36h-10.7V9.78h9.14v3h-9.14v6.58H155v3H141V.36H155Z"/>
		<path d="M173.64,3.36H162.93V9.78h9.14v3h-9.14v6.58h10.71v3h-14V.36h14Z"/>
		<path d="M185.94.36a7.35,7.35,0,0,1,6.24,2.75c1.61,2,1.67,4.69,1.67,8.21s-.06,6.24-1.67,8.21a7.35,7.35,0,0,1-6.24,2.78h-7.72V.31Zm-4.39,3v16h4a4.62,4.62,0,0,0,3.77-1.48c1.08-1.2,1.17-3.24,1.17-6.52s-.07-5.31-1.17-6.52a4.62,4.62,0,0,0-3.77-1.48Z"/>
		<path d="M211.58,2.4c2.16,2.16,2.22,4.35,2.22,9s-.06,6.79-2.22,9a8.37,8.37,0,0,1-11.37,0C198,18.24,198,16,198,11.4s.06-6.79,2.22-9A8.37,8.37,0,0,1,211.58,2.4Zm-9,2.1c-1.08,1.17-1.3,2.5-1.3,6.86s.22,5.65,1.3,6.83a4.62,4.62,0,0,0,6.53,0l0,0c1.11-1.14,1.3-2.47,1.3-6.83s-.19-5.71-1.3-6.86A4.7,4.7,0,0,0,202.58,4.5Z"/>
		<path d="M238.14,22.35H234.8V7.65l-5.06,10.72h-2.47L222.08,7.65v14.7h-3.34V.35h3.34L228.5,14,234.8.35h3.34Z"/>
		<path d="M264.8,3.36h-6.05v19h-3.33v-19h-6.1v-3h15.44Z"/>
		<path d="M277.13.36C281.3.36,284,3,284,6.78a5.77,5.77,0,0,1-4.39,5.84l5.06,9.73h-3.89l-4.63-9.24h-4.17v9.27H268.6V.38Zm-5.19,3v6.89h4.94c2.22,0,3.74-1.27,3.74-3.43s-1.51-3.46-3.74-3.46Z"/>
		<path d="M305,22.35h-3.55L300,17.93h-8.64l-1.51,4.42h-3.55l8.06-22H297Zm-12.79-7.24H299l-3.4-9.76Z"/>
		<path d="M322.78,6.94h-3.4a4.36,4.36,0,0,0-4.45-3.77,4.28,4.28,0,0,0-3.24,1.33c-1.11,1.17-1.33,2.5-1.33,6.86s.22,5.68,1.33,6.86a4.28,4.28,0,0,0,3.24,1.33,4.36,4.36,0,0,0,4.45-3.77h3.4c-.77,4.35-3.83,6.76-7.84,6.76a7.67,7.67,0,0,1-5.68-2.22c-2.13-2.16-2.22-4.35-2.22-9s.09-6.79,2.22-9a8.06,8.06,0,0,1,13.52,4.62Z"/>
		<path d="M336.5,9l7.88,13.37h-3.92l-6.14-10.84L330.61,16v6.39h-3.34V.35h3.34V11.42l9-11.06h4.08Z"/>
		<path d="M361.61,3.36H350.89V9.78H360v3h-9.14v6.58h10.72v3H347.56V.36h14.05Z"/>
		<path d="M374.71.36c4.17,0,6.83,2.69,6.83,6.42a5.77,5.77,0,0,1-4.39,5.84l5.06,9.73h-3.89l-4.63-9.24h-4.17v9.27h-3.34V.38Zm-5.19,3v6.89h4.94c2.22,0,3.74-1.27,3.74-3.43s-1.51-3.46-3.74-3.46Z"/>
	</g>
</svg>
