<svg width="24" height="24" viewBox="0 0 24 24" fill="none" xmlns="http://www.w3.org/2000/svg">
<g clip-path="url(#clip0_2803_20651)">
<path d="M12.0001 0.0513916C5.37268 0.0513916 0 5.42408 0 12.0515C0 17.9955 4.32626 22.9181 9.9987 23.8713V14.555H7.10393V11.2024H9.9987V8.7304C9.9987 5.86211 11.7506 4.29906 14.3096 4.29906C15.5353 4.29906 16.5886 4.39039 16.8944 4.43062V7.42874L15.1194 7.4296C13.728 7.4296 13.4598 8.09066 13.4598 9.06107V11.2007H16.7798L16.3468 14.5533H13.4598V23.9515C19.397 23.2289 24 18.1808 24 12.048C24 5.42408 18.6273 0.0513916 12.0001 0.0513916Z" fill="white"/>
</g>
<defs>
<clipPath id="clip0_2803_20651">
<rect width="24" height="24" fill="white" transform="translate(0 0.00012207)"/>
</clipPath>
</defs>
</svg>
