<svg width="24" height="24" viewBox="0 0 24 24" fill="none" xmlns="http://www.w3.org/2000/svg">
<g clip-path="url(#clip0_2803_20654)">
<path d="M24 4.55862C23.1075 4.95012 22.1565 5.20962 21.165 5.33562C22.185 4.72662 22.9635 3.76962 23.3295 2.61612C22.3785 3.18312 21.3285 3.58362 20.2095 3.80712C19.3065 2.84562 18.0195 2.25012 16.6155 2.25012C13.8915 2.25012 11.6985 4.46112 11.6985 7.17162C11.6985 7.56162 11.7315 7.93662 11.8125 8.29362C7.722 8.09412 4.1025 6.13362 1.671 3.14712C1.2465 3.88362 0.9975 4.72662 0.9975 5.63412C0.9975 7.33812 1.875 8.84862 3.183 9.72312C2.3925 9.70812 1.617 9.47862 0.96 9.11712C0.96 9.13212 0.96 9.15162 0.96 9.17112C0.96 11.5621 2.6655 13.5481 4.902 14.0056C4.5015 14.1151 4.065 14.1676 3.612 14.1676C3.297 14.1676 2.979 14.1496 2.6805 14.0836C3.318 16.0321 5.127 17.4646 7.278 17.5111C5.604 18.8206 3.4785 19.6096 1.1775 19.6096C0.774 19.6096 0.387 19.5916 0 19.5421C2.1795 20.9476 4.7625 21.7501 7.548 21.7501C16.602 21.7501 21.552 14.2501 21.552 7.74912C21.552 7.53162 21.5445 7.32162 21.534 7.11312C22.5105 6.42012 23.331 5.55462 24 4.55862Z" fill="white"/>
</g>
<defs>
<clipPath id="clip0_2803_20654">
<rect width="24" height="24" fill="white" transform="translate(0 0.00012207)"/>
</clipPath>
</defs>
</svg>
