<svg width="13" height="13" viewBox="0 0 13 13" fill="none" xmlns="http://www.w3.org/2000/svg">
<path d="M5.96429 13L6.21428 7.85714L4.5 12.7143L3.5 12.3214L5.71429 7.64286L2.28571 11.5L1.5 10.7143L5.35714 7.28571L0.678571 9.5L0.285714 8.5L5.14286 6.78571L0 7.03571V5.96429L5.14286 6.25L0.285714 4.5L0.678571 3.53571L5.35714 5.75L1.5 2.28571L2.28571 1.53571L5.71429 5.35714L3.5 0.714285L4.5 0.285714L6.21428 5.17857L5.96429 0H7.03571L6.75 5.14286L8.5 0.285714L9.46428 0.714285L7.25 5.35714L10.7143 1.53571L11.4643 2.28571L7.64286 5.75L12.2857 3.53571L12.7143 4.5L7.82143 6.25L13 5.96429V7.03571L7.82143 6.78571L12.7143 8.5L12.2857 9.5L7.64286 7.28571L11.4643 10.7143L10.7143 11.5L7.25 7.64286L9.46428 12.3214L8.5 12.7143L6.75 7.85714L7.03571 13H5.96429Z" fill="black"/>
</svg>
