<svg viewBox="0 0 13 13" fill="none" xmlns="http://www.w3.org/2000/svg">
<path d="M10.25 6.5C10.25 8.57107 8.57107 10.25 6.5 10.25C4.42893 10.25 2.75 8.57107 2.75 6.5C2.75 4.42893 4.42893 2.75 6.5 2.75C8.57107 2.75 10.25 4.42893 10.25 6.5Z" fill="black"/>
<path fill-rule="evenodd" clip-rule="evenodd" d="M11 6.5C11 8.98528 8.98528 11 6.5 11C4.01472 11 2 8.98528 2 6.5C2 4.01472 4.01472 2 6.5 2C8.98528 2 11 4.01472 11 6.5ZM6.5 10.25C8.57107 10.25 10.25 8.57107 10.25 6.5C10.25 4.42893 8.57107 2.75 6.5 2.75C4.42893 2.75 2.75 4.42893 2.75 6.5C2.75 8.57107 4.42893 10.25 6.5 10.25Z" fill="black"/>
<path fill-rule="evenodd" clip-rule="evenodd" d="M6.5 12.3036C9.70522 12.3036 12.3036 9.70522 12.3036 6.5C12.3036 3.29478 9.70522 0.696429 6.5 0.696429C3.29478 0.696429 0.696429 3.29478 0.696429 6.5C0.696429 9.70522 3.29478 12.3036 6.5 12.3036ZM6.5 13C10.0899 13 13 10.0899 13 6.5C13 2.91015 10.0899 0 6.5 0C2.91015 0 0 2.91015 0 6.5C0 10.0899 2.91015 13 6.5 13Z" fill="black"/>
</svg>
