<svg viewBox="0 0 14 13" fill="none" xmlns="http://www.w3.org/2000/svg">
<path fill-rule="evenodd" clip-rule="evenodd" d="M7.12012 12.25C10.2958 12.25 12.8701 9.67564 12.8701 6.5C12.8701 3.32436 10.2958 0.75 7.12012 0.75C3.94448 0.75 1.37012 3.32436 1.37012 6.5C1.37012 9.67564 3.94448 12.25 7.12012 12.25ZM7.12012 13C10.71 13 13.6201 10.0899 13.6201 6.5C13.6201 2.91015 10.71 0 7.12012 0C3.53027 0 0.620117 2.91015 0.620117 6.5C0.620117 10.0899 3.53027 13 7.12012 13Z" fill="black"/>
<path fill-rule="evenodd" clip-rule="evenodd" d="M11.6201 6.5C11.6201 8.98528 9.6054 11 7.12012 11C4.63484 11 2.62012 8.98528 2.62012 6.5C2.62012 4.01472 4.63484 2 7.12012 2C9.6054 2 11.6201 4.01472 11.6201 6.5ZM7.12012 10.25C9.19118 10.25 10.8701 8.57107 10.8701 6.5C10.8701 4.42893 9.19118 2.75 7.12012 2.75C5.04905 2.75 3.37012 4.42893 3.37012 6.5C3.37012 8.57107 5.04905 10.25 7.12012 10.25Z" fill="black"/>
</svg>
