<svg viewBox="0 0 13 13" fill="none" xmlns="http://www.w3.org/2000/svg">
<path d="M5.47857 7.52132C4.77044 8.90393 4.0537 9.77215 3.45403 10.2622C3.07057 10.5756 2.75593 10.7176 2.53895 10.7611C2.32053 10.805 2.25875 10.7439 2.25726 10.7424C2.25575 10.7409 2.19464 10.6791 2.23854 10.4606C2.28214 10.2436 2.42416 9.92894 2.73758 9.54551C3.22771 8.94589 4.09597 8.22925 5.47857 7.52132ZM5.99348 11.3142C5.91613 10.544 6.02329 9.42392 6.5 7.94653C6.97671 9.42392 7.08387 10.544 7.00652 11.3142C6.95704 11.807 6.83498 12.1298 6.71239 12.3141C6.58898 12.4995 6.50209 12.5 6.5 12.5C6.49791 12.5 6.41102 12.4995 6.28761 12.3141C6.16502 12.1298 6.04296 11.807 5.99348 11.3142ZM9.54597 10.2622C8.9463 9.77215 8.22956 8.90393 7.52143 7.52131C8.90403 8.22925 9.77229 8.94589 10.2624 9.54551C10.5758 9.92894 10.7179 10.2436 10.7615 10.4606C10.8054 10.6791 10.7442 10.7409 10.7427 10.7424C10.7412 10.7439 10.6795 10.805 10.4611 10.7611C10.2441 10.7176 9.92943 10.5756 9.54597 10.2622ZM11.3142 7.00601C10.5438 7.08343 9.42324 6.97628 7.94523 6.49941C9.42324 6.02253 10.5438 5.91538 11.3142 5.99281C11.8069 6.04232 12.1298 6.1644 12.3141 6.287C12.4995 6.41042 12.5 6.49731 12.5 6.49941C12.5 6.5015 12.4995 6.58839 12.3141 6.71181C12.1298 6.83442 11.8069 6.95649 11.3142 7.00601ZM10.261 3.45355C9.77124 4.05294 8.90356 4.76934 7.52188 5.4771C8.22936 4.09532 8.9455 3.22748 9.54474 2.73751C9.92806 2.42409 10.2426 2.28208 10.4595 2.23846C10.6779 2.19456 10.7396 2.25566 10.7411 2.25711C10.7425 2.25857 10.8036 2.3203 10.7598 2.53868C10.7162 2.75561 10.5743 3.07018 10.261 3.45355ZM7.00652 1.68576C7.08387 2.45599 6.97671 3.57608 6.5 5.05347C6.02329 3.57608 5.91613 2.45599 5.99348 1.68576C6.04296 1.19304 6.16502 0.870178 6.28761 0.685934C6.41102 0.500468 6.49791 0.5 6.5 0.5C6.50209 0.5 6.58898 0.500468 6.71239 0.685934C6.83498 0.870178 6.95704 1.19304 7.00652 1.68576ZM5.47776 5.4771C4.09562 4.76932 3.2276 4.0529 2.73756 3.45347C2.42413 3.07008 2.28213 2.7555 2.23853 2.53857C2.19465 2.3202 2.25576 2.25852 2.25717 2.25711C2.25861 2.25567 2.32037 2.19455 2.53885 2.23847C2.75586 2.28209 3.07053 2.42413 3.454 2.73756C4.05346 3.22754 4.76989 4.09537 5.47776 5.4771ZM1.6858 5.99281C2.45625 5.91538 3.57676 6.02253 5.05477 6.49941C3.57676 6.97628 2.45625 7.08343 1.6858 7.00601C1.19307 6.95649 0.870196 6.83442 0.685944 6.71181C0.500468 6.58839 0.5 6.5015 0.5 6.49941C0.5 6.49731 0.500468 6.41042 0.685944 6.287C0.870196 6.1644 1.19307 6.04232 1.6858 5.99281Z" fill="black" stroke="black"/>
</svg>
