<svg width="13" height="13" viewBox="0 0 13 13" fill="none" xmlns="http://www.w3.org/2000/svg">
<path d="M6.5 13L6.78676 8.49449L8.33126 12.7367L7.33706 8.33291L10.0142 11.9681L7.81954 8.02284L11.4124 10.7566L8.19513 7.58939L12.4126 9.2002L8.43338 7.06769L12.9338 7.42505L8.515 6.5L12.9338 5.57495L8.43338 5.93231L12.4126 3.7998L8.19513 5.41061L11.4124 2.24341L7.81954 4.97716L10.0142 1.03185L7.33706 4.66709L8.33126 0.263296L6.78676 4.50551L6.5 0L6.21324 4.50551L4.66874 0.263296L5.66294 4.66709L2.98583 1.03185L5.18046 4.97716L1.58763 2.24341L4.80487 5.41061L0.587392 3.7998L4.56662 5.93231L0.0661607 5.57495L4.485 6.5L0.0661607 7.42505L4.56662 7.06769L0.587392 9.2002L4.80487 7.58939L1.58763 10.7566L5.18046 8.02284L2.98583 11.9681L5.66294 8.33291L4.66874 12.7367L6.21324 8.49449L6.5 13Z" fill="black"/>
</svg>
